<svg  width="600" height="600" xmlns="http://www.w3.org/2000/svg" ><path  d="
 M 65 149
 L 66 148 C 77 160, 87, 167, 101, 172
 C 121 177, 141, 177, 160, 180
 C 165 182, 163, 184, 162, 185
 C 179 180, 194, 175, 210, 171
 C 210 194, 189, 210, 188, 232
 C 193 243, 203, 244, 211, 246
 C 223 247, 232, 246, 239, 241
 C 253 233, 261, 224, 269, 214
 C 280 211, 290, 211, 297, 207
 C 308 212, 316, 217, 324, 220
 C 335 231, 343, 241, 354, 250
 C 368 262, 381, 270, 396, 276
 C 420 306, 452, 335, 479, 357
 C 475 365, 469, 370, 465, 371
 C 458 375, 452, 375, 447, 373
 C 425 365, 411, 345, 394, 333
 C 406 347, 417, 360, 430, 371
 C 440 378, 451, 382, 458, 388
 C 451 397, 446, 402, 440, 405
 C 431 408, 425, 411, 417, 409
 C 395 401, 378, 384, 360, 369
 C 374 388, 390, 406, 408, 420
 C 401 428, 394, 429, 387, 431
 C 379 434, 372, 433, 366, 434
 C 346 427, 335, 410, 321, 398
 C 330 411, 339, 423, 348, 436
 C 347 442, 346, 447, 343, 450
 C 337 453, 334, 455, 330, 455
 C 321 455, 314, 455, 308, 452
 C 301 445, 295, 439, 290, 434
 C 280 423, 290, 410, 282, 401
 C 277 394, 272, 391, 265, 391
 C 267 382, 269, 373, 265, 367
 C 261 356, 252, 356, 246, 352
 C 248 345, 246, 338, 245, 334
 C 243 328, 240, 324, 236, 321
 C 229 319, 223, 319, 217, 320
 C 211 326, 204, 333, 198, 338
 C 194 330, 190, 327, 186, 323
 C 179 319, 175, 316, 169, 316
 C 158 326, 148, 334, 144, 345
 C 138 354, 139, 365, 136, 375
 C 123 369, 112, 367, 102, 362
 C 106 337, 113, 316, 120, 294
 C 110 321, 100, 349, 96, 378
 C 93 382, 89, 384, 87, 381
 C 71 372, 57, 364, 45, 352
 C 37 345, 33, 340, 32, 333
 C 29 308, 25, 285, 28, 263
 C 30 248, 31, 235, 34, 224
 C 40 196, 50, 172, 63, 151" fill="rgb(224,107,11)" />
<path  d="
 M 65 149 C 52 170, 41, 196, 36, 222
 C 32 235, 31, 248, 29, 260
 C 26 285, 30, 310, 33, 330
 C 34 339, 37, 345, 43, 349
 C 57 363, 71, 371, 84, 380
 C 90 380, 92, 383, 95, 379
 C 99 349, 109, 322, 118, 297
 C 114 317, 107, 339, 103, 360
 C 113 366, 125, 368, 133, 373
 C 137 364, 137, 354, 141, 345
 C 148 333, 158, 325, 166, 317
 C 175 315, 179, 318, 185, 320
 C 190 326, 195, 329, 196, 336
 C 204 332, 210, 325, 215, 319
 C 223 318, 229, 318, 233, 320
 C 240 323, 244, 328, 245, 332
 C 248 338, 248, 345, 247, 350
 C 254 355, 262, 357, 266, 365
 C 271 374, 267, 383, 266, 390
 C 274 390, 278, 395, 282, 399
 C 291 410, 281, 423, 290, 432
 C 296 438, 301, 445, 307, 449
 C 314 454, 321, 454, 327, 455
 C 334 454, 337, 452, 341, 450
 C 345 446, 346, 442, 348, 439
 C 338 424, 329, 411, 321, 399
 C 336 411, 347, 426, 363, 432
 C 372 432, 379, 433, 385, 431
 C 393 429, 400, 428, 404, 423
 C 391 407, 375, 391, 363, 372
 C 382 386, 396, 401, 415, 408
 C 425 410, 431, 407, 437, 404
 C 446 401, 451, 396, 455, 390
 C 450 383, 440, 379, 432, 373
 C 417 360, 405, 346, 393, 332
 C 411 344, 423, 361, 441, 371
 C 450 373, 457, 375, 463, 371
 C 469 369, 474, 365, 477, 361
 C 451 336, 420, 306, 398, 279
 C 381 271, 368, 263, 355, 253
 C 343 242, 334, 232, 327, 221
 C 316 218, 308, 213, 299, 210
 C 290 212, 280, 212, 272, 214
 C 261 225, 253, 234, 241, 242
 C 231 248, 218, 249, 208, 246
 C 201 244, 196, 244, 193, 240
 C 186 235, 188, 230, 188, 224
 C 196 207, 207, 190, 212, 174
 C 194 176, 179, 181, 164, 188
 C 161 185, 164, 182, 162, 181
 C 141 178, 121, 178, 103, 174
 C 88 168, 78, 162, 68, 150" fill="rgb(230,110,11)" />
<path  d="
 M 316 139 C 319 137, 323, 139, 326, 138
 C 361 150, 388, 167, 419, 185
 C 429 189, 438, 190, 449, 189
 C 450 186, 446, 184, 448, 181
 C 466 178, 481, 175, 495, 168
 C 509 160, 519, 149, 528, 139
 C 539 153, 546, 166, 551, 180
 C 558 195, 561, 209, 565, 223
 C 568 239, 568, 253, 569, 267
 C 572 294, 569, 317, 566, 341
 C 554 354, 542, 365, 531, 375
 C 525 380, 520, 383, 515, 381
 C 504 347, 497, 313, 483, 282
 C 489 301, 494, 321, 497, 341
 C 491 346, 489, 350, 485, 352
 C 481 351, 479, 351, 478, 350
 C 448 331, 427, 307, 406, 284
 C 410 277, 416, 285, 423, 282
 C 403 276, 383, 265, 364, 254
 C 348 244, 339, 229, 329, 216
 C 317 211, 306, 208, 300, 199
 C 295 203, 291, 204, 285, 206
 C 277 206, 269, 209, 265, 204
 C 267 205, 265, 208, 266, 210
 C 256 221, 248, 235, 235, 239
 C 224 243, 212, 243, 203, 240
 C 199 238, 196, 238, 195, 235
 C 195 208, 215, 189, 222, 164
 C 226 160, 229, 158, 232, 157
 C 262 152, 288, 146, 314, 139" fill="rgb(52,51,55)" />
<path  d="
 M 318 140 C 293 143, 272, 154, 246, 154
 C 238 157, 230, 157, 224, 162
 C 219 190, 185, 214, 198, 240
 C 212 242, 224, 242, 233, 239
 C 246 236, 252, 224, 259, 217
 C 264 213, 266, 207, 263, 202
 C 269 208, 277, 205, 282, 206
 C 290 203, 296, 202, 300, 198
 C 306 208, 317, 209, 326, 214
 C 340 228, 348, 243, 363, 251
 C 383 264, 403, 275, 424, 281
 C 419 286, 411, 280, 406, 281
 C 428 307, 448, 330, 476, 349
 C 479 350, 481, 350, 483, 351
 C 489 350, 490, 344, 495, 344
 C 493 321, 488, 303, 483, 284
 C 497 314, 505, 346, 513, 379
 C 520 382, 525, 379, 528, 376
 C 541 365, 554, 353, 563, 343
 C 567 330, 567, 319, 568, 307
 C 571 278, 567, 252, 565, 225
 C 560 209, 557, 195, 551, 182
 C 546 167, 538, 154, 530, 141
 C 519 150, 509, 161, 496, 167
 C 481 176, 466, 179, 451, 182
 C 449 185, 452, 188, 451, 190
 C 438 191, 429, 190, 421, 186
 C 388 168, 361, 151, 329, 140
 C 324 139, 322, 139, 319, 139" fill="rgb(53,52,57)" />
<path  d="
 M 221 325 C 229 323, 237, 326, 239, 334
 C 242 339, 241, 344, 242, 347
 C 235 364, 224, 373, 216, 386
 C 209 399, 206, 412, 208, 427
 C 204 429, 204, 427, 201, 428
 C 189 422, 181, 412, 179, 401
 C 176 390, 179, 383, 181, 376
 C 190 357, 205, 342, 216, 326
 L 219 326 L 220 326" fill="rgb(50,49,52)" />
<path  d="
 M 223 326 C 222 327, 220, 326, 219, 327
 C 206 343, 190, 357, 182, 373
 C 180 383, 177, 390, 179, 400
 C 182 412, 190, 422, 199, 425
 C 203 426, 204, 428, 205, 428
 C 205 412, 208, 399, 213, 387
 C 223 373, 234, 364, 240, 350
 C 242 337, 237, 324, 224, 326" fill="rgb(54,53,56)" />
<path  d="
 M 242 361
 L 243 360 C 251 358, 258, 361, 260, 368
 C 262 372, 263, 375, 262, 379
 C 260 391, 248, 397, 246, 407
 C 242 420, 240, 435, 248, 444
 C 241 447, 235, 447, 231, 445
 C 224 442, 217, 440, 215, 434
 C 212 424, 212, 412, 214, 404
 C 216 385, 229, 376, 239, 362" fill="rgb(50,49,51)" />
<path  d="
 M 243 361 C 240 362, 238, 364, 236, 366
 C 226 380, 216, 388, 216, 403
 C 213 412, 213, 424, 214, 432
 C 218 440, 224, 441, 228, 444
 C 235 446, 240, 446, 246, 445
 C 239 435, 241, 420, 244, 409
 C 247 397, 259, 391, 261, 381
 C 263 368, 256, 358, 244, 361" fill="rgb(54,53,56)" />
<path  d="
 M 168 322 C 176 320, 183, 325, 187, 330
 C 190 336, 190, 340, 189, 344
 C 179 359, 171, 376, 170, 394
 C 161 392, 157, 387, 152, 386
 C 144 381, 144, 373, 142, 367
 C 143 356, 147, 347, 153, 340
 C 157 332, 162, 328, 166, 323" fill="rgb(50,49,51)" />
<path  d="
 M 259 398 C 263 396, 268, 398, 271, 397
 C 275 400, 277, 402, 279, 404
 C 283 413, 277, 421, 281, 427
 C 286 440, 296, 446, 303, 455
 C 291 459, 281, 460, 271, 460
 C 263 459, 260, 454, 256, 451
 C 250 439, 246, 429, 248, 416
 C 250 408, 253, 404, 257, 399" fill="rgb(50,48,51)" />
<path  d="
 M 170 323 C 164 326, 158, 333, 155, 338
 C 148 347, 144, 356, 144, 366
 C 146 370, 143, 376, 147, 378
 C 153 385, 159, 389, 166, 391
 C 169 375, 179, 359, 188, 346
 C 189 340, 189, 336, 187, 333
 C 183 325, 177, 324, 172, 322" fill="rgb(54,53,55)" />
<path  d="
 M 261 398 C 254 402, 251, 409, 249, 414
 C 247 429, 251, 439, 256, 449
 C 261 453, 264, 458, 269, 457
 C 281 459, 291, 458, 301, 456
 C 294 447, 285, 440, 281, 429
 C 276 421, 282, 413, 278, 405
 C 276 402, 275, 401, 274, 400
 C 268 398, 266, 399, 263, 399" fill="rgb(54,53,56)" /></svg>