<?xml version="1.0" standalone="no"?>
<!DOCTYPE svg PUBLIC "-//W3C//DTD SVG 20010904//EN"
 "http://www.w3.org/TR/2001/REC-SVG-20010904/DTD/svg10.dtd">
<svg version="1.0" xmlns="http://www.w3.org/2000/svg"
 width="289.129588pt" height="288.182773pt" viewBox="0 0 289.129588 288.182773"
 preserveAspectRatio="xMidYMid meet">
<metadata>
Created by potrace 1.12, written by Peter Selinger 2001-2015
</metadata>
<g transform="translate(0.022885,290.684408) scale(0.100000,-0.100000)"
fill="#2363a6" stroke="none">
<path d="M1300 2905 c-8 -2 -49 -9 -90 -15 -113 -18 -314 -85 -416 -139 -212
-112 -426 -298 -548 -478 -193 -286 -278 -640 -235 -983 10 -84 49 -264 66
-308 8 -22 9 -22 61 22 29 25 65 54 81 65 l29 21 -18 69 c-73 275 -34 625 96
872 114 215 306 411 518 529 81 44 238 104 333 126 350 81 740 -6 1030 -229
l70 -55 25 22 c14 11 45 42 68 69 42 47 43 47 24 68 -30 33 -262 184 -329 214
-84 37 -215 81 -315 106 -65 16 -125 21 -260 24 -96 2 -182 2 -190 0z"/>
<path d="M2640 2728 c-98 -67 -104 -176 -13 -245 92 -70 233 4 233 121 0 113
-129 185 -220 124z"/>
<path d="M2425 2359 c-66 -60 -177 -149 -247 -200 -71 -50 -128 -94 -128 -97
1 -10 37 -52 45 -52 11 0 173 118 270 196 86 69 215 194 215 209 0 4 -8 17
-18 29 l-17 23 -120 -108z"/>
<path d="M1333 2375 c-112 -31 -185 -80 -249 -167 -52 -72 -84 -166 -84 -252
0 -61 23 -162 41 -180 18 -19 8 -31 -46 -55 -58 -25 -105 -70 -105 -100 0 -57
180 -129 373 -149 70 -7 77 -7 77 9 0 22 -26 49 -48 49 -9 0 -41 11 -69 25
-55 25 -93 71 -93 113 0 48 59 102 111 102 20 0 17 4 -18 35 -54 46 -78 107
-70 181 9 88 64 167 138 198 28 12 38 23 48 56 15 52 61 83 110 76 46 -7 71
-34 78 -84 5 -34 9 -41 34 -46 16 -3 48 -23 71 -45 37 -34 43 -45 43 -81 0
-48 -29 -80 -74 -80 l-26 -1 30 -16 c78 -41 116 -105 117 -197 2 -107 -47
-183 -144 -222 -39 -16 -47 -23 -50 -50 l-4 -31 46 4 c211 21 400 95 400 157
0 30 -54 80 -113 105 l-48 21 21 39 c46 90 44 243 -4 346 -48 103 -150 195
-258 232 -63 22 -174 26 -235 8z"/>
<path d="M1992 2378 c-34 -34 6 -90 48 -68 35 19 20 80 -20 80 -9 0 -21 -5
-28 -12z"/>
<path d="M2767 2346 c-56 -17 -66 -23 -55 -34 11 -11 2 -23 -47 -68 -33 -30
-63 -54 -67 -54 -5 0 -25 -15 -45 -33 -62 -55 -205 -155 -341 -238 -183 -112
-169 -97 -135 -141 15 -21 31 -37 34 -38 17 -1 188 102 304 183 117 82 309
239 344 281 19 23 27 20 41 -14 7 -17 14 -29 16 -27 3 3 44 192 44 203 0 7
-24 2 -93 -20z"/>
<path d="M762 2278 c-34 -34 6 -90 48 -68 35 19 20 80 -20 80 -9 0 -21 -5 -28
-12z"/>
<path d="M1408 2193 c-2 -22 -11 -28 -49 -39 -51 -15 -114 -75 -125 -119 -17
-69 32 -140 122 -174 l49 -19 3 -96 3 -96 -31 0 c-17 0 -54 10 -81 22 -46 19
-52 20 -67 5 -15 -15 -14 -19 8 -42 24 -25 103 -55 147 -55 19 0 23 -5 23 -31
0 -27 3 -30 28 -27 21 2 28 9 30 29 2 21 11 29 43 38 46 14 103 61 125 104 21
40 21 105 0 145 -18 36 -91 87 -136 97 -28 6 -29 8 -32 87 -2 44 0 82 4 84 4
3 24 -2 44 -11 25 -10 41 -12 48 -5 14 14 -19 47 -60 60 -28 10 -34 16 -34 41
0 25 -4 29 -29 29 -25 0 -30 -5 -33 -27z m2 -159 c0 -73 -1 -75 -22 -69 -74
22 -91 47 -67 92 13 25 53 52 77 53 8 0 12 -22 12 -76z m138 -246 c26 -26 28
-55 5 -88 -23 -33 -44 -49 -65 -50 -16 0 -18 11 -18 90 l0 90 28 -11 c15 -6
37 -20 50 -31z"/>
<path d="M613 1999 c-50 -15 -83 -62 -83 -118 0 -60 26 -96 81 -112 150 -45
238 157 96 222 -47 21 -49 21 -94 8z"/>
<path d="M2770 2003 c0 -5 -33 -33 -74 -63 l-73 -55 19 -55 c31 -91 49 -188
55 -310 20 -406 -165 -809 -482 -1048 -117 -88 -214 -142 -316 -177 -314 -107
-567 -109 -873 -5 -117 40 -272 121 -339 179 -17 15 -47 38 -65 50 l-34 24
-54 -54 c-71 -71 -76 -86 -33 -122 64 -53 234 -164 314 -204 78 -39 258 -98
380 -125 83 -18 418 -17 510 1 285 56 504 165 723 359 111 98 269 305 315 412
72 164 116 315 137 460 20 143 12 361 -20 508 -17 77 -71 232 -81 232 -5 0 -9
-3 -9 -7z"/>
<path d="M1295 1750 c16 -10 32 -17 35 -14 7 8 -31 34 -49 34 -10 0 -4 -8 14
-20z"/>
<path d="M460 1518 c-42 -46 -12 -121 49 -121 42 0 74 32 74 74 0 62 -80 93
-123 47z"/>
<path d="M2295 1528 c-92 -50 -109 -160 -34 -222 45 -38 90 -43 146 -15 92 47
107 137 33 211 -32 33 -44 38 -81 38 -24 0 -53 -6 -64 -12z"/>
<path d="M1956 1491 c-25 -28 -123 -74 -201 -94 -145 -39 -396 -46 -560 -17
-91 16 -209 58 -257 90 l-43 29 -7 -55 c-15 -111 18 -149 172 -198 113 -36
247 -50 438 -43 186 6 326 34 408 82 65 38 75 59 72 150 l-3 77 -19 -21z"/>
<path d="M649 1206 c-30 -18 -77 -45 -103 -60 -115 -64 -316 -242 -434 -384
-50 -60 -53 -62 -61 -40 l-9 23 -6 -25 c-3 -14 -9 -59 -14 -101 l-8 -76 77 35
c75 34 77 35 57 51 -19 16 -17 19 93 124 128 123 266 229 421 324 l107 65 -31
47 c-17 25 -32 47 -32 48 -1 1 -26 -13 -57 -31z"/>
<path d="M888 1132 c-5 -110 -2 -120 49 -152 101 -64 285 -101 503 -101 234 0
427 42 502 109 l38 34 0 89 0 88 -36 -24 c-41 -28 -68 -37 -209 -66 -119 -25
-408 -31 -540 -10 -112 18 -243 55 -276 80 l-27 20 -4 -67z"/>
<path d="M2240 1011 c-14 -27 -13 -47 6 -65 32 -32 94 -10 94 34 0 46 -79 70
-100 31z"/>
<path d="M623 870 c-117 -86 -324 -295 -323 -326 0 -5 11 -17 24 -26 23 -16
24 -16 128 95 59 63 148 143 201 182 53 39 96 75 96 80 0 10 -33 55 -41 55 -2
0 -40 -27 -85 -60z"/>
<path d="M890 777 l0 -96 35 -29 c45 -36 163 -77 285 -98 144 -25 421 -15 551
19 112 29 169 56 198 93 18 22 21 41 21 110 0 82 -6 98 -29 70 -21 -26 -126
-65 -231 -86 -94 -20 -127 -21 -315 -17 -166 4 -227 9 -290 25 -97 25 -172 56
-202 84 l-23 21 0 -96z"/>
<path d="M114 467 c-28 -26 -37 -42 -41 -78 -5 -41 -2 -50 27 -82 52 -59 123
-62 178 -7 76 75 24 200 -84 200 -36 0 -51 -6 -80 -33z"/>
</g>
</svg>
